<?xml version="1.0" encoding="iso-8859-1"?>
<!-- Uploaded to: SVG Repo, www.svgrepo.com, Generator: SVG Repo Mixer Tools -->
<svg fill="#000000" height="800px" width="800px" version="1.1" id="Layer_1" xmlns="http://www.w3.org/2000/svg" xmlns:xlink="http://www.w3.org/1999/xlink" 
	 viewBox="0 0 512 512" xml:space="preserve">
<g transform="translate(1 1)">
	<g>
		<g>
			<path d="M337.237,497.043c-0.824-0.933-1.81-1.721-2.88-2.256c-0.589-0.196-1.177-0.557-1.765-1.051
				c-4.655-4.801-8.272-16.26-11.889-27.109c-1.707-5.12-3.413-10.24-5.12-15.36c-15.36-43.52-11.093-93.013,12.8-146.773
				c33.28-74.24,29.013-238.933,29.013-245.76c0-5.12-4.267-8.533-8.533-8.533v-7.68c0-17.92-13.653-33.28-30.72-34.987
				c-11.947-0.853-23.04,4.267-29.867,12.8c-8.533-4.267-18.773-5.12-28.16-1.707C254.143,6.68,242.197-1,229.397-1
				c-12.8,0-24.747,7.68-30.72,19.627c-3.413-1.707-6.827-2.56-10.24-2.56c-8.533,0-17.067,2.56-23.893,9.387
				c-7.68,6.827-11.947,16.213-11.947,26.453v6.827c0,6.827-4.267,171.52,29.867,245.76c23.893,52.907,28.16,102.4,11.947,145.92
				c-0.629,1.886-1.258,3.773-1.886,5.659c-0.246,0.376-0.472,0.765-0.674,1.167c-0.853,3.413-1.707,5.973-2.56,8.533
				c-4.267,12.8-9.387,26.453-14.507,29.013c-3.413,1.707-5.973,5.12-5.12,9.387c0.853,4.267,4.267,6.827,8.533,6.827h153.6
				c4.267,0,7.68-2.56,8.533-5.973C341.002,502.337,339.551,499.122,337.237,497.043z M175.637,37.4
				c3.413-2.56,7.68-4.267,11.947-4.267s7.68,1.707,11.093,5.12c1.707,2.56,5.12,2.56,8.533,1.707c2.56-1.707,5.12-4.267,5.12-7.68
				c0.853-9.387,8.533-16.213,17.067-16.213c9.387,0,16.213,6.827,17.067,16.213c0,2.56,2.56,5.973,5.973,6.827
				c2.56,0.853,5.973,0.853,8.533-1.707c6.827-5.973,17.92-5.973,23.893,0.853c1.707,2.56,5.12,3.413,7.68,2.56
				c2.56,0,5.12-2.56,5.973-5.12c3.413-7.68,10.24-11.947,17.92-11.093c8.533,0.853,15.36,8.533,15.36,18.773V50.2h-75.093
				c-15.36,0-27.307,11.947-27.307,27.307v82.773c0,2.768-1.083,5.529-3.004,7.365c-0.137,0.105-0.261,0.216-0.409,0.315
				c-0.212,0.212-0.438,0.397-0.674,0.56c-0.005,0.004-0.011,0.007-0.017,0.011c-1.24,0.844-2.795,1.059-4.429,1.114
				c-0.981-0.033-1.933-0.126-2.805-0.376c-3.01-1.382-5.728-5.182-5.728-8.989V77.507c0-0.48-0.012-0.957-0.035-1.43
				C211.581,61.412,199.93,50.2,185.877,50.2h-0.853h-15.36C170.517,45.933,172.223,40.813,175.637,37.4z M197.823,296.813
				c-28.16-60.587-28.16-194.56-28.16-229.547h16.213c5.12,0,9.387,4.267,9.387,10.24v82.773v0.853
				c0,7.68,3.413,14.507,9.387,19.627c2.544,2.544,5.721,4.244,9.216,5.207c0.895,0.299,1.802,0.567,2.731,0.766
				c0.464,0,0.863,0,1.236,0c2.377,0.28,4.837,0.273,7.297,0c1.471-0.315,2.901-0.762,4.281-1.323
				c2.849-0.957,5.482-2.466,7.665-4.65c5.973-5.12,9.387-11.947,9.387-19.627v-0.853V77.507c0-5.973,4.267-10.24,10.24-10.24
				h83.627h0.853c0,34.987-0.853,168.96-28.16,229.547c-24.69,55.964-30.322,107.958-14.616,154.453h-85.969
				C228.145,404.771,222.513,352.778,197.823,296.813z M196.97,493.933c3.413-6.827,5.973-14.507,8.533-23.04
				c0.328-0.821,0.657-1.682,0.985-2.56h97.148l1.707,2.56c2.56,8.533,5.12,16.213,8.533,23.04H196.97z"/>
			<path d="M254.997,289.987l30.72,15.36c0.853,0.853,1.707,0.853,3.413,0.853c1.707,0,3.413-0.853,5.12-1.707
				c2.56-1.707,3.413-5.12,2.56-8.533l-7.68-29.867l22.187-22.187c2.56-2.56,3.413-5.973,2.56-8.533s-3.413-5.12-5.973-5.973
				l-30.72-7.68l-15.36-23.04c-3.413-5.12-11.093-5.12-14.507,0l-15.36,23.04l-30.72,7.68c-2.56,0.853-5.12,2.56-5.973,5.973
				s0,5.973,2.56,8.533l22.187,22.187l-7.68,29.867c-0.853,3.413,0,6.827,2.56,8.533s6.827,2.56,9.387,0.853L254.997,289.987z
				 M239.637,237.933c2.56,0,4.267-1.707,5.12-3.413l10.24-15.36l10.24,15.36c0.853,1.707,3.413,2.56,5.12,3.413l19.627,4.267
				l-15.36,15.36c-2.56,1.707-3.413,5.12-2.56,7.68l4.267,16.213l-17.92-8.533c-0.853-0.853-1.707-0.853-3.413-0.853
				c-1.707,0-2.56,0-3.413,0.853l-17.92,8.533l4.267-16.213c0.853-2.56,0-5.973-1.707-7.68l-15.36-15.36L239.637,237.933z"/>
		</g>
	</g>
</g>
</svg>