<!DOCTYPE svg PUBLIC "-//W3C//DTD SVG 1.1//EN" "http://www.w3.org/Graphics/SVG/1.1/DTD/svg11.dtd">

<!-- Uploaded to: SVG Repo, www.svgrepo.com, Transformed by: SVG Repo Mixer Tools -->
<svg height="800px" width="800px" version="1.1" id="Layer_1" xmlns="http://www.w3.org/2000/svg" xmlns:xlink="http://www.w3.org/1999/xlink" viewBox="-5.12 -5.12 522.24 522.24" xml:space="preserve" fill="#000000" stroke="#000000" stroke-width="11.776">

<g id="SVGRepo_bgCarrier" stroke-width="0"/>

<g id="SVGRepo_tracerCarrier" stroke-linecap="round" stroke-linejoin="round"/>

<g id="SVGRepo_iconCarrier"> <g transform="translate(-1)"> <path style="fill:#E6E6E6;" d="M239.346,158.897c0,10.726-9.56,19.209-20.621,17.417c-8.678-1.412-14.689-9.569-14.689-18.361 V72.007c0-10.514-8.527-19.041-19.041-19.041h-16.34h-8.757v-7.15c0-15.298,12.544-28.902,27.825-28.125 c6.365,0.327,12.094,2.948,16.499,6.991C205.166,10.911,216.509,0,230.519,0s25.353,10.911,26.297,24.682 c4.714-4.326,10.946-7.027,17.841-7.027c7.68,0,14.53,3.319,19.368,8.536c3.99-10.823,14.742-18.361,27.189-17.258 c13.886,1.236,24.064,13.78,24.064,27.719v16.313h-86.89c-10.514,0-19.041,8.527-19.041,19.041V158.897z"/> <path style="fill:#F4C44E;" d="M311.4,461.255c-18.865-51.597-10.125-106.496,13.268-158.146 c34.101-75.29,29.502-250.147,29.502-250.147h-8.889h-86.899c-10.514,0-19.032,8.527-19.032,19.041v85.945 c0,8.801-6.012,16.949-14.689,18.361c-11.061,1.801-20.621-6.691-20.621-17.417v-86.89c0-10.514-8.527-19.041-19.041-19.041h-16.34 H159.9h-0.071c0,0-4.59,174.857,29.502,250.147c23.402,51.65,32.132,106.549,13.268,158.146 c-8.863,24.249-13.153,45.718-25.114,50.741h159.029C324.553,506.974,320.271,485.505,311.4,461.255"/> <g> <polygon style="fill:#E6E400;" points="309.693,238.345 283.21,264.828 292.038,300.138 256.728,282.483 221.417,300.138 230.245,264.828 203.762,238.345 239.072,229.517 256.728,203.034 274.383,229.517 "/> <path style="fill:#E6E400;" d="M313.716,467.862H200.29c-7.38,21.442-11.944,39.574-22.802,44.138h159.029 C325.66,507.436,321.087,489.304,313.716,467.862"/> </g> </g> </g>

</svg>